<svg width="168" height="126" viewBox="0 0 168 126" fill="none" xmlns="http://www.w3.org/2000/svg">
<path d="M50.9976 115.745C36.4203 130.166 11.7319 130.109 4.8371 110.889C3.48719 107.126 2.40789 103.257 1.61407 99.3094C-1.62708 83.1896 0.036396 66.4817 6.39417 51.2973C12.7519 36.1135 23.5184 23.1354 37.3321 14.0045C51.146 4.87359 67.3866 -7.0402e-07 84.0002 0C100.614 7.0402e-07 116.854 4.87359 130.668 14.0045C144.482 23.1354 155.248 36.1135 161.606 51.2978C167.964 66.4817 169.627 83.1896 166.386 99.3094C165.592 103.257 164.513 107.126 163.163 110.889C156.268 130.109 131.58 130.166 117.002 115.745L94.5 93.4849C92.3502 91.3581 92.5723 87.8507 93.1654 84.9011C93.5257 83.108 93.3406 81.2492 92.6333 79.56C91.926 77.8708 90.7285 76.4269 89.1918 75.4113C87.655 74.3957 85.8484 73.8534 84.0002 73.8534C82.152 73.8534 80.3453 74.3957 78.8086 75.4113C77.2714 76.4269 76.0739 77.8708 75.3666 79.56C74.6592 81.2492 74.4742 83.108 74.835 84.9011C75.4281 87.8507 75.6497 91.3581 73.4999 93.4849L50.9976 115.745Z" fill="url(#paint0_linear_122_2211)"/>
<defs>
<linearGradient id="paint0_linear_122_2211" x1="160.354" y1="41.5489" x2="11.2539" y2="41.5489" gradientUnits="userSpaceOnUse">
<stop stop-color="#161490"/>
<stop offset="0.510417" stop-color="#7476ED"/>
<stop offset="1" stop-color="#E56F8C"/>
</linearGradient>
</defs>
</svg>
