<svg width="211" height="83" viewBox="0 0 211 83" fill="none" xmlns="http://www.w3.org/2000/svg">
<path d="M37.2574 4.24264C39.6005 1.8995 43.3995 1.8995 45.7426 4.24264L78.7574 37.2574C81.1005 39.6005 81.1005 43.3995 78.7574 45.7426L45.7426 78.7574C43.3995 81.1005 39.6005 81.1005 37.2574 78.7574L4.24264 45.7426C1.8995 43.3995 1.8995 39.6005 4.24264 37.2574L37.2574 4.24264Z" fill="#65DAFF"/>
<path d="M37.968 48.032H29.584L28.24 52H22.512L30.64 29.536H36.976L45.104 52H39.312L37.968 48.032ZM36.56 43.808L33.776 35.584L31.024 43.808H36.56ZM51.6098 32.288C50.6498 32.288 49.8604 32.0107 49.2418 31.456C48.6444 30.88 48.3458 30.176 48.3458 29.344C48.3458 28.4907 48.6444 27.7867 49.2418 27.232C49.8604 26.656 50.6498 26.368 51.6098 26.368C52.5484 26.368 53.3164 26.656 53.9138 27.232C54.5324 27.7867 54.8418 28.4907 54.8418 29.344C54.8418 30.176 54.5324 30.88 53.9138 31.456C53.3164 32.0107 52.5484 32.288 51.6098 32.288ZM54.3298 34.144V52H48.8578V34.144H54.3298ZM75.7645 52.224C74.1218 52.224 72.6498 51.9573 71.3485 51.424C70.0472 50.8907 69.0018 50.1013 68.2125 49.056C67.4445 48.0107 67.0392 46.752 66.9965 45.28H72.8205C72.9058 46.112 73.1938 46.752 73.6845 47.2C74.1752 47.6267 74.8152 47.84 75.6045 47.84C76.4152 47.84 77.0552 47.6587 77.5245 47.296C77.9938 46.912 78.2285 46.3893 78.2285 45.728C78.2285 45.1733 78.0365 44.7147 77.6525 44.352C77.2898 43.9893 76.8312 43.6907 76.2765 43.456C75.7432 43.2213 74.9752 42.9547 73.9725 42.656C72.5218 42.208 71.3378 41.76 70.4205 41.312C69.5032 40.864 68.7138 40.2027 68.0525 39.328C67.3912 38.4533 67.0605 37.312 67.0605 35.904C67.0605 33.8133 67.8178 32.1813 69.3325 31.008C70.8472 29.8133 72.8205 29.216 75.2525 29.216C77.7272 29.216 79.7218 29.8133 81.2365 31.008C82.7512 32.1813 83.5618 33.824 83.6685 35.936H77.7485C77.7058 35.2107 77.4392 34.6453 76.9485 34.24C76.4578 33.8133 75.8285 33.6 75.0605 33.6C74.3992 33.6 73.8658 33.7813 73.4605 34.144C73.0552 34.4853 72.8525 34.9867 72.8525 35.648C72.8525 36.3733 73.1938 36.9387 73.8765 37.344C74.5592 37.7493 75.6258 38.1867 77.0765 38.656C78.5272 39.1467 79.7005 39.616 80.5965 40.064C81.5138 40.512 82.3032 41.1627 82.9645 42.016C83.6258 42.8693 83.9565 43.968 83.9565 45.312C83.9565 46.592 83.6258 47.7547 82.9645 48.8C82.3245 49.8453 81.3858 50.6773 80.1485 51.296C78.9112 51.9147 77.4498 52.224 75.7645 52.224ZM96.732 52.256C94.9827 52.256 93.404 51.8827 91.996 51.136C90.6093 50.3893 89.5107 49.3227 88.7 47.936C87.9107 46.5493 87.516 44.928 87.516 43.072C87.516 41.2373 87.9213 39.6267 88.732 38.24C89.5427 36.832 90.652 35.7547 92.06 35.008C93.468 34.2613 95.0467 33.888 96.796 33.888C98.5453 33.888 100.124 34.2613 101.532 35.008C102.94 35.7547 104.049 36.832 104.86 38.24C105.671 39.6267 106.076 41.2373 106.076 43.072C106.076 44.9067 105.66 46.528 104.828 47.936C104.017 49.3227 102.897 50.3893 101.468 51.136C100.06 51.8827 98.4813 52.256 96.732 52.256ZM96.732 47.52C97.7773 47.52 98.6627 47.136 99.388 46.368C100.135 45.6 100.508 44.5013 100.508 43.072C100.508 41.6427 100.145 40.544 99.42 39.776C98.716 39.008 97.8413 38.624 96.796 38.624C95.7293 38.624 94.844 39.008 94.14 39.776C93.436 40.5227 93.084 41.6213 93.084 43.072C93.084 44.5013 93.4253 45.6 94.108 46.368C94.812 47.136 95.6867 47.52 96.732 47.52ZM115.731 28.32V52H110.259V28.32H115.731ZM138.609 34.144V52H133.137V49.568C132.582 50.3573 131.825 50.9973 130.865 51.488C129.926 51.9573 128.881 52.192 127.729 52.192C126.363 52.192 125.158 51.8933 124.113 51.296C123.067 50.6773 122.257 49.792 121.681 48.64C121.105 47.488 120.817 46.1333 120.817 44.576V34.144H126.257V43.84C126.257 45.0347 126.566 45.9627 127.185 46.624C127.803 47.2853 128.635 47.616 129.681 47.616C130.747 47.616 131.59 47.2853 132.209 46.624C132.827 45.9627 133.137 45.0347 133.137 43.84V34.144H138.609ZM153.771 47.36V52H150.987C149.003 52 147.456 51.52 146.347 50.56C145.238 49.5787 144.683 47.9893 144.683 45.792V38.688H142.507V34.144H144.683V29.792H150.155V34.144H153.739V38.688H150.155V45.856C150.155 46.3893 150.283 46.7733 150.539 47.008C150.795 47.2427 151.222 47.36 151.819 47.36H153.771ZM160.851 32.288C159.891 32.288 159.102 32.0107 158.483 31.456C157.886 30.88 157.587 30.176 157.587 29.344C157.587 28.4907 157.886 27.7867 158.483 27.232C159.102 26.656 159.891 26.368 160.851 26.368C161.79 26.368 162.558 26.656 163.155 27.232C163.774 27.7867 164.083 28.4907 164.083 29.344C164.083 30.176 163.774 30.88 163.155 31.456C162.558 32.0107 161.79 32.288 160.851 32.288ZM163.571 34.144V52H158.099V34.144H163.571ZM176.945 52.256C175.195 52.256 173.617 51.8827 172.209 51.136C170.822 50.3893 169.723 49.3227 168.913 47.936C168.123 46.5493 167.729 44.928 167.729 43.072C167.729 41.2373 168.134 39.6267 168.945 38.24C169.755 36.832 170.865 35.7547 172.273 35.008C173.681 34.2613 175.259 33.888 177.009 33.888C178.758 33.888 180.337 34.2613 181.745 35.008C183.153 35.7547 184.262 36.832 185.073 38.24C185.883 39.6267 186.289 41.2373 186.289 43.072C186.289 44.9067 185.873 46.528 185.041 47.936C184.23 49.3227 183.11 50.3893 181.681 51.136C180.273 51.8827 178.694 52.256 176.945 52.256ZM176.945 47.52C177.99 47.52 178.875 47.136 179.601 46.368C180.347 45.6 180.721 44.5013 180.721 43.072C180.721 41.6427 180.358 40.544 179.633 39.776C178.929 39.008 178.054 38.624 177.009 38.624C175.942 38.624 175.057 39.008 174.353 39.776C173.649 40.5227 173.297 41.6213 173.297 43.072C173.297 44.5013 173.638 45.6 174.321 46.368C175.025 47.136 175.899 47.52 176.945 47.52ZM201.352 33.952C203.442 33.952 205.106 34.6347 206.344 36C207.602 37.344 208.232 39.2 208.232 41.568V52H202.792V42.304C202.792 41.1093 202.482 40.1813 201.864 39.52C201.245 38.8587 200.413 38.528 199.368 38.528C198.322 38.528 197.49 38.8587 196.872 39.52C196.253 40.1813 195.944 41.1093 195.944 42.304V52H190.472V34.144H195.944V36.512C196.498 35.7227 197.245 35.104 198.184 34.656C199.122 34.1867 200.178 33.952 201.352 33.952Z" fill="#113C49"/>
</svg>
