<svg width="95" height="57" viewBox="0 0 95 57" fill="none" xmlns="http://www.w3.org/2000/svg">
<path d="M46.97 56.8361C46.652 56.8361 46.355 56.7521 46.08 56.6061L43.258 54.9491C42.834 54.7191 43.046 54.6341 43.173 54.5921C43.746 54.4021 43.853 54.3621 44.446 54.0261C44.51 53.9841 44.596 54.0061 44.658 54.0461L46.822 55.3261C46.907 55.3681 47.012 55.3681 47.076 55.3261L55.542 50.4801C55.627 50.4381 55.669 50.3541 55.669 50.2501V40.5781C55.669 40.4731 55.626 40.3881 55.542 40.3481L47.076 35.5231C46.991 35.4811 46.886 35.4811 46.822 35.5231L38.356 40.3481C38.271 40.3901 38.229 40.4951 38.229 40.5781V50.2501C38.229 50.3341 38.272 50.4401 38.356 50.4801L40.669 51.8021C41.921 52.4321 42.706 51.6971 42.706 50.9621V41.4161C42.706 41.2901 42.812 41.1641 42.961 41.1641H44.043C44.17 41.1641 44.298 41.2691 44.298 41.4161V50.9621C44.298 52.6191 43.386 53.5851 41.794 53.5851C41.306 53.5851 40.924 53.5851 39.842 53.0601L37.614 51.8001C37.062 51.4851 36.724 50.8981 36.724 50.2681V40.5961C36.724 39.9661 37.064 39.3791 37.614 39.0641L46.08 34.2181C46.61 33.9241 47.332 33.9241 47.863 34.2181L56.329 39.0641C56.881 39.3791 57.219 39.9661 57.219 40.5961V50.2681C57.219 50.8981 56.879 51.4851 56.329 51.8001L47.863 56.6461C47.5825 56.7708 47.279 56.8352 46.972 56.8351L46.97 56.8361ZM49.57 50.1861C45.857 50.1861 45.093 48.5081 45.093 47.0811C45.093 46.9551 45.199 46.8291 45.348 46.8291H46.451C46.578 46.8291 46.684 46.9131 46.684 47.0291C46.854 48.1411 47.342 48.6861 49.591 48.6861C51.373 48.6861 52.137 48.2861 52.137 47.3431C52.137 46.7981 51.925 46.3991 49.145 46.1261C46.832 45.8961 45.389 45.3921 45.389 43.5661C45.389 41.8661 46.832 40.8591 49.251 40.8591C51.967 40.8591 53.304 41.7821 53.474 43.7961C53.474 43.8591 53.454 43.9221 53.41 43.9861C53.367 44.0281 53.304 44.0701 53.24 44.0701H52.137C52.031 44.0701 51.925 43.9861 51.904 43.8801C51.649 42.7261 50.992 42.3481 49.252 42.3481C47.3 42.3481 47.066 43.0181 47.066 43.5231C47.066 44.1311 47.342 44.3201 49.973 44.6561C52.573 44.9921 53.813 45.4741 53.813 47.2791C53.793 49.1251 52.263 50.1741 49.569 50.1741L49.57 50.1861Z" fill="#539E43"/>
<path d="M20.7 19.0081C20.7 18.6301 20.488 18.2741 20.148 18.0851L11.151 12.9651C11.001 12.8811 10.833 12.8391 10.663 12.8181H10.578C10.408 12.8181 10.238 12.8811 10.09 12.9651L1.09302 18.0851C0.753016 18.2751 0.541016 18.6301 0.541016 19.0081L0.561016 32.7711C0.560505 32.866 0.585952 32.9592 0.634601 33.0406C0.68325 33.122 0.753247 33.1886 0.837016 33.2331C1.00702 33.3381 1.21902 33.3381 1.36702 33.2331L6.71402 30.2131C7.05402 30.0231 7.26602 29.6681 7.26602 29.2901V22.8501C7.26602 22.4721 7.47802 22.1161 7.81802 21.9271L10.088 20.6271C10.258 20.5221 10.448 20.4801 10.64 20.4801C10.8279 20.4737 11.0132 20.525 11.171 20.6271L13.441 21.9271C13.781 22.1171 13.993 22.4721 13.993 22.8501V29.2901C13.993 29.6681 14.205 30.0241 14.545 30.2131L19.892 33.2331C20.062 33.3381 20.274 33.3381 20.444 33.2331C20.5278 33.1886 20.5978 33.122 20.6464 33.0406C20.6951 32.9592 20.7205 32.866 20.72 32.7711L20.7 19.0081ZM63.945 0.0631132C63.8627 0.0216159 63.7717 0 63.6795 0C63.5873 0 63.4964 0.0216159 63.414 0.0631132C63.244 0.168113 63.138 0.336113 63.138 0.523113V14.1601C63.138 14.2861 63.074 14.4121 62.948 14.4961C62.8891 14.5271 62.8236 14.5433 62.757 14.5433C62.6905 14.5433 62.6249 14.5271 62.566 14.4961L60.316 13.2161C59.981 13.0261 59.569 13.0261 59.234 13.2161L50.237 18.3561C49.897 18.5461 49.685 18.9011 49.685 19.2791V29.5391C49.685 29.9171 49.897 30.2731 50.237 30.4621L59.234 35.6021C59.569 35.7921 59.981 35.7921 60.316 35.6021L69.313 30.4621C69.653 30.2721 69.865 29.9171 69.865 29.5391V3.96511C69.865 3.56511 69.653 3.21011 69.313 3.02111L63.945 0.0631132ZM63.118 26.1631C63.118 26.2681 63.076 26.3531 62.991 26.3931L59.914 28.1551C59.827 28.1971 59.724 28.1971 59.638 28.1551L56.561 26.3931C56.476 26.3511 56.434 26.2461 56.434 26.1631V22.6381C56.434 22.5331 56.476 22.4481 56.561 22.4081L59.638 20.6461C59.725 20.6041 59.828 20.6041 59.914 20.6461L62.991 22.4081C63.076 22.4501 63.118 22.5551 63.118 22.6381V26.1631ZM93.885 22.5531C94.225 22.3631 94.415 22.0081 94.415 21.6301V19.1331C94.4128 18.9467 94.3629 18.764 94.2699 18.6024C94.1769 18.4408 94.0441 18.3057 93.884 18.2101L84.951 13.0901C84.616 12.9001 84.204 12.9001 83.869 13.0901L74.872 18.2301C74.532 18.4201 74.32 18.7751 74.32 19.1531V29.4131C74.32 29.7911 74.532 30.1471 74.872 30.3361L83.805 35.3711C84.145 35.5611 84.548 35.5611 84.865 35.3711L90.275 32.3911C90.3588 32.3466 90.4288 32.28 90.4774 32.1986C90.5261 32.1172 90.5515 32.024 90.551 31.9291C90.5515 31.8343 90.5261 31.7411 90.4774 31.6596C90.4288 31.5782 90.3588 31.5116 90.275 31.4671L81.235 26.3271C81.065 26.2221 80.959 26.0541 80.959 25.8671V22.6671C80.9585 22.5723 80.9839 22.4791 81.0326 22.3976C81.0813 22.3162 81.1512 22.2496 81.235 22.2051L84.057 20.6101C84.227 20.5051 84.44 20.5051 84.609 20.6101L87.431 22.2051C87.601 22.3101 87.707 22.4781 87.707 22.6671V25.1851C87.7067 25.2798 87.7322 25.3728 87.7809 25.454C87.8295 25.5353 87.8994 25.6017 87.983 25.6461C88.153 25.7511 88.365 25.7511 88.535 25.6461L93.882 22.5621L93.885 22.5531Z" fill="#333333"/>
<path d="M84.273 22.0701C84.337 22.0281 84.421 22.0281 84.485 22.0701L86.205 23.0561C86.269 23.0981 86.311 23.1611 86.311 23.2461V25.2181C86.3112 25.256 86.3015 25.2934 86.2829 25.3265C86.2643 25.3597 86.2375 25.3874 86.205 25.4071L84.485 26.3931C84.421 26.4351 84.337 26.4351 84.273 26.3931L82.553 25.4071C82.5205 25.3874 82.4937 25.3597 82.4751 25.3265C82.4566 25.2934 82.4469 25.256 82.447 25.2181V23.2461C82.447 23.1621 82.489 23.0991 82.553 23.0561L84.273 22.0701Z" fill="#539E43"/>
<path d="M35.744 13.1332C35.409 12.9432 34.997 12.9432 34.662 13.1332L25.729 18.2312C25.389 18.4212 25.199 18.7762 25.199 19.1542V29.3722C25.2012 29.5586 25.2512 29.7414 25.3441 29.903C25.4371 30.0646 25.57 30.1996 25.73 30.2952L34.663 35.3932C34.998 35.5832 35.41 35.5832 35.745 35.3932L44.678 30.2952C45.018 30.1052 45.208 29.7502 45.208 29.3722V19.1542C45.2058 18.9678 45.1559 18.7851 45.0629 18.6235C44.9699 18.4619 44.8371 18.3268 44.677 18.2312L35.744 13.1332Z" fill="url(#paint0_linear_1_764)"/>
<mask id="mask0_1_764" style="mask-type:alpha" maskUnits="userSpaceOnUse" x="25" y="12" width="21" height="24">
<path d="M35.744 13.1332C35.409 12.9432 34.997 12.9432 34.662 13.1332L25.729 18.2312C25.389 18.4212 25.199 18.7762 25.199 19.1542V29.3722C25.2012 29.5586 25.2512 29.7414 25.3441 29.903C25.4371 30.0646 25.57 30.1996 25.73 30.2952L34.663 35.3932C34.998 35.5832 35.41 35.5832 35.745 35.3932L44.678 30.2952C45.018 30.1052 45.208 29.7502 45.208 29.3722V19.1542C45.2058 18.9678 45.1559 18.7851 45.0629 18.6235C44.9699 18.4619 44.8371 18.3268 44.677 18.2312L35.744 13.1332Z" fill="white"/>
</mask>
<g mask="url(#mask0_1_764)">
<path d="M44.699 18.2313L35.714 13.1333C35.634 13.0793 35.544 13.0543 35.448 13.0293L25.39 30.0643C25.473 30.1643 25.574 30.2503 25.687 30.3163L34.663 35.4143C34.918 35.5613 35.215 35.6043 35.49 35.5193L44.934 18.4413C44.8664 18.3605 44.7876 18.2898 44.7 18.2313H44.699Z" fill="url(#paint1_linear_1_764)"/>
</g>
<mask id="mask1_1_764" style="mask-type:alpha" maskUnits="userSpaceOnUse" x="25" y="12" width="21" height="24">
<path d="M35.744 13.1332C35.409 12.9432 34.997 12.9432 34.662 13.1332L25.729 18.2312C25.389 18.4212 25.199 18.7762 25.199 19.1542V29.3722C25.2012 29.5586 25.2512 29.7414 25.3441 29.903C25.4371 30.0646 25.57 30.1996 25.73 30.2952L34.663 35.3932C34.998 35.5832 35.41 35.5832 35.745 35.3932L44.678 30.2952C45.018 30.1052 45.208 29.7502 45.208 29.3722V19.1542C45.2058 18.9678 45.1559 18.7851 45.0629 18.6235C44.9699 18.4619 44.8371 18.3268 44.677 18.2312L35.744 13.1332Z" fill="white"/>
</mask>
<g mask="url(#mask1_1_764)">
<path fill-rule="evenodd" clip-rule="evenodd" d="M44.72 30.2952C44.975 30.1482 45.166 29.8952 45.25 29.6252L35.404 13.0092C35.149 12.9672 34.874 12.9892 34.64 13.1352L25.729 18.2112L35.341 35.5412C35.4806 35.5185 35.6163 35.4761 35.744 35.4152L44.72 30.2952Z" fill="url(#paint2_linear_1_764)"/>
<path d="M44.72 30.295L35.766 35.393C35.6395 35.4569 35.5033 35.4994 35.363 35.519L35.533 35.834L45.463 30.149V30.023L45.208 29.603C45.166 29.897 44.975 30.148 44.72 30.295Z" fill="url(#paint3_linear_1_764)"/>
<path d="M44.72 30.295L35.766 35.393C35.6395 35.4569 35.5033 35.4994 35.363 35.519L35.533 35.834L45.463 30.149V30.023L45.208 29.603C45.166 29.897 44.975 30.148 44.72 30.295Z" fill="url(#paint4_linear_1_764)"/>
</g>
<defs>
<linearGradient id="paint0_linear_1_764" x1="38.0708" y1="16.9332" x2="30.3306" y2="32.5433" gradientUnits="userSpaceOnUse">
<stop stop-color="#41873F"/>
<stop offset="0.3288" stop-color="#418B3D"/>
<stop offset="0.6352" stop-color="#419637"/>
<stop offset="0.9319" stop-color="#3FA92D"/>
<stop offset="1" stop-color="#3FAE2A"/>
</linearGradient>
<linearGradient id="paint1_linear_1_764" x1="34.1737" y1="25.4607" x2="53.1748" y2="11.5784" gradientUnits="userSpaceOnUse">
<stop offset="0.1376" stop-color="#41873F"/>
<stop offset="0.4032" stop-color="#54A044"/>
<stop offset="0.7136" stop-color="#66B848"/>
<stop offset="0.9081" stop-color="#6CC04A"/>
</linearGradient>
<linearGradient id="paint2_linear_1_764" x1="24.8722" y1="24.265" x2="45.5426" y2="24.265" gradientUnits="userSpaceOnUse">
<stop offset="0.09192" stop-color="#6CC04A"/>
<stop offset="0.2864" stop-color="#66B848"/>
<stop offset="0.5968" stop-color="#54A044"/>
<stop offset="0.8624" stop-color="#41873F"/>
</linearGradient>
<linearGradient id="paint3_linear_1_764" x1="24.873" y1="32.7357" x2="45.5435" y2="32.7357" gradientUnits="userSpaceOnUse">
<stop offset="0.09192" stop-color="#6CC04A"/>
<stop offset="0.2864" stop-color="#66B848"/>
<stop offset="0.5968" stop-color="#54A044"/>
<stop offset="0.8624" stop-color="#41873F"/>
</linearGradient>
<linearGradient id="paint4_linear_1_764" x1="48.5549" y1="26.5271" x2="42.145" y2="39.4563" gradientUnits="userSpaceOnUse">
<stop stop-color="#41873F"/>
<stop offset="0.3288" stop-color="#418B3D"/>
<stop offset="0.6352" stop-color="#419637"/>
<stop offset="0.9319" stop-color="#3FA92D"/>
<stop offset="1" stop-color="#3FAE2A"/>
</linearGradient>
</defs>
</svg>
