<svg width="167" height="94" viewBox="0 0 167 94" fill="none" xmlns="http://www.w3.org/2000/svg">
<path d="M49.547 61.6519C49.547 61.6519 47.487 62.8469 51.013 63.2519C55.285 63.7379 57.468 63.6679 62.175 62.7799C62.175 62.7799 63.413 63.5539 65.141 64.2249C54.588 68.7369 41.258 63.9649 49.547 61.6529V61.6519ZM48.257 55.7629C48.257 55.7629 45.957 57.4689 49.475 57.8329C54.038 58.3029 57.642 58.3409 63.877 57.1329C63.877 57.1329 64.74 58.0049 66.097 58.4829C53.337 62.2049 39.127 58.7769 48.257 55.7529" fill="#5382A1"/>
<path d="M59.13 45.775C61.73 48.762 58.447 51.45 58.447 51.45C58.447 51.45 65.049 48.05 62.017 43.79C59.185 39.82 57.013 37.846 68.77 31.043C68.77 31.043 50.316 35.641 59.13 45.775Z" fill="#E76F00"/>
<path d="M73.086 66.008C73.086 66.008 74.61 67.261 71.406 68.231C65.316 70.071 46.054 70.628 40.703 68.304C38.78 67.469 42.387 66.31 43.521 66.067C44.704 65.811 45.381 65.859 45.381 65.859C43.241 64.356 31.555 68.811 39.445 70.087C60.961 73.567 78.667 68.519 73.085 66.007L73.086 66.008ZM50.538 49.662C50.538 49.662 40.741 51.984 47.068 52.827C49.74 53.184 55.066 53.103 60.028 52.687C64.083 52.347 68.154 51.62 68.154 51.62C68.154 51.62 66.724 52.23 65.69 52.935C55.74 55.545 36.52 54.331 42.054 51.661C46.734 49.404 50.538 49.661 50.538 49.661V49.662ZM68.113 59.463C78.227 54.219 73.551 49.18 70.287 49.859C69.487 50.025 69.13 50.159 69.13 50.159C69.13 50.159 69.427 49.695 69.994 49.494C76.451 47.229 81.417 56.174 67.91 59.717C67.91 59.717 68.067 59.577 68.113 59.453" fill="#5382A1"/>
<path d="M62.016 20.0581C62.016 20.0581 67.616 25.6581 56.704 34.2451C47.952 41.1411 54.708 45.0721 56.7 49.5651C51.592 44.9651 47.843 40.9181 50.358 37.1511C54.048 31.6211 64.276 28.9391 62.016 20.0591" fill="#E76F00"/>
<path d="M51.532 73.6731C61.24 74.2931 76.147 73.3291 76.5 68.7461C76.5 68.7461 75.82 70.4831 68.477 71.8631C60.191 73.4191 49.972 73.2371 43.91 72.2401C43.91 72.2401 45.15 73.2641 51.53 73.6731" fill="#5382A1"/>
<path d="M104.885 55.762C103.968 56.549 102.999 56.992 102.13 56.992C100.89 56.992 100.22 56.256 100.22 55.074C100.22 53.796 100.938 52.862 103.82 52.862H104.886V55.762H104.885ZM107.415 58.588V49.84C107.415 47.605 106.127 46.14 103.022 46.14C101.209 46.14 99.622 46.583 98.332 47.148L98.704 48.698C99.72 48.328 101.034 47.985 102.326 47.985C104.116 47.985 104.884 48.698 104.884 50.171V51.277H103.991C99.645 51.277 97.685 52.947 97.685 55.453C97.685 57.616 98.977 58.845 101.409 58.845C102.972 58.845 104.139 58.205 105.231 57.271L105.429 58.599H107.414L107.415 58.588ZM115.861 58.588H112.705L108.905 46.352H111.661L114.018 53.87L114.542 56.13C115.734 52.86 116.578 49.544 117 46.35H119.68C118.96 50.38 117.67 54.802 115.858 58.586L115.861 58.588ZM127.969 55.762C127.049 56.549 126.079 56.992 125.209 56.992C123.969 56.992 123.299 56.256 123.299 55.074C123.299 53.796 124.019 52.862 126.899 52.862H127.967V55.762H127.969ZM130.499 58.588V49.84C130.499 47.605 129.209 46.14 126.107 46.14C124.293 46.14 122.705 46.583 121.415 47.148L121.787 48.698C122.803 48.328 124.121 47.985 125.411 47.985C127.198 47.985 127.969 48.698 127.969 50.171V51.277H127.075C122.728 51.277 120.769 52.947 120.769 55.453C120.769 57.616 122.059 58.845 124.492 58.845C126.056 58.845 127.222 58.205 128.316 57.271L128.516 58.599H130.5L130.499 58.588ZM94.911 60.666C94.2 61.71 93.025 62.533 91.75 63L90.5 61.545C91.47 61.052 92.304 60.245 92.69 59.515C93.025 58.855 93.163 58.015 93.163 55.971V42H95.853V55.778C95.853 58.496 95.633 59.595 94.913 60.666H94.911Z" fill="#E76F00"/>
</svg>
