<svg width="167" height="94" viewBox="0 0 167 94" fill="none" xmlns="http://www.w3.org/2000/svg">
<path d="M84.5 79C102.173 79 116.5 64.6731 116.5 47C116.5 29.3269 102.173 15 84.5 15C66.8269 15 52.5 29.3269 52.5 47C52.5 64.6731 66.8269 79 84.5 79Z" fill="#5C2D91"/>
<path opacity="0.1" d="M62.32 24C57.971 27.8756 54.7624 32.8647 53.0401 38.4296C51.3179 43.9944 51.1474 49.9239 52.5469 55.5785C53.9464 61.2332 56.863 66.3985 60.982 70.5176C65.1011 74.6367 70.2664 77.5534 75.921 78.953C81.5757 80.3526 87.5052 80.1822 93.0702 78.4599C98.6351 76.7377 103.624 73.5291 107.5 69.18L62.32 24Z" fill="white"/>
<path d="M59.9 52.25C59.7133 52.253 59.5281 52.2172 59.356 52.1449C59.1838 52.0726 59.0286 51.9654 58.9 51.83C58.7679 51.6995 58.6635 51.5437 58.593 51.3718C58.5226 51.2 58.4875 51.0157 58.49 50.83C58.4887 50.6445 58.5242 50.4605 58.5946 50.2889C58.665 50.1172 58.7688 49.9612 58.9 49.83C59.0273 49.6924 59.1821 49.583 59.3544 49.5089C59.5266 49.4348 59.7125 49.3977 59.9 49.4C60.0872 49.3996 60.2725 49.4375 60.4445 49.5114C60.6165 49.5854 60.7715 49.6938 60.9 49.83C61.0334 49.96 61.1394 50.1156 61.2116 50.2874C61.2837 50.4592 61.3206 50.6437 61.32 50.83C61.3217 51.0165 61.2854 51.2014 61.2132 51.3734C61.1409 51.5453 61.0344 51.7007 60.9 51.83C60.7703 51.9639 60.6149 52.0702 60.443 52.1424C60.2711 52.2146 60.0864 52.2512 59.9 52.25ZM79.77 52H77.15L67.78 37.46C67.5466 37.1018 67.3521 36.7196 67.2 36.32H67.12C67.209 37.1502 67.2424 37.9854 67.22 38.82V52H65.1V33.77H67.87L76.99 48.05L77.73 49.27H77.78C77.6745 48.3808 77.631 47.4853 77.65 46.59V33.77H79.78V52H79.77ZM94.2 52H84.5V33.77H93.74V35.7H86.68V41.76H93.26V43.68H86.68V50H94.2V52ZM108.5 35.7H103.2V52H101.07V35.7H95.83V33.77H108.5V35.7Z" fill="white"/>
<path d="M78.62 64.3999C77.898 64.7496 77.1017 64.9178 76.3 64.8899C75.7673 64.9139 75.2356 64.8237 74.7406 64.6254C74.2456 64.427 73.7987 64.1251 73.43 63.7399C72.6952 62.9174 72.3081 61.842 72.35 60.7399C72.3231 60.1432 72.4163 59.5472 72.6242 58.9872C72.832 58.4271 73.1503 57.9146 73.56 57.4799C73.9593 57.0709 74.4393 56.7494 74.9695 56.5359C75.4998 56.3225 76.0687 56.2217 76.64 56.2399C77.3237 56.2166 78.0048 56.3358 78.64 56.5899V57.5899C78.0285 57.2514 77.3389 57.079 76.64 57.0899C76.1994 57.0775 75.7613 57.1605 75.3557 57.333C74.9501 57.5056 74.5866 57.7638 74.29 58.0899C73.6663 58.8004 73.3436 59.7257 73.39 60.6699C73.3433 61.5644 73.6443 62.4423 74.23 63.1199C74.5109 63.422 74.8539 63.6598 75.2354 63.8169C75.6168 63.9739 76.0278 64.0466 76.44 64.0299C77.2078 64.05 77.9661 63.8561 78.63 63.4699L78.62 64.3999ZM82.7 64.8999C82.3019 64.9128 81.9057 64.84 81.5382 64.6865C81.1708 64.5329 80.8405 64.3022 80.57 64.0099C80.0232 63.3997 79.7393 62.5983 79.78 61.7799C79.755 61.3512 79.8155 60.9217 79.958 60.5166C80.1005 60.1114 80.3221 59.7387 80.61 59.4199C80.9038 59.1332 81.2532 58.9099 81.6368 58.7636C82.0204 58.6174 82.4299 58.5515 82.84 58.5699C83.2276 58.5493 83.6151 58.6128 83.9759 58.7561C84.3366 58.8993 84.6621 59.119 84.93 59.3999C85.4615 60.0405 85.7296 60.8591 85.68 61.6899C85.7219 62.5331 85.4311 63.3591 84.87 63.9899C84.5943 64.2879 84.258 64.5233 83.8837 64.6802C83.5093 64.8372 83.1057 64.9121 82.7 64.8999ZM82.77 59.4299C82.4949 59.4184 82.2208 59.469 81.968 59.5781C81.7152 59.6872 81.4903 59.8519 81.31 60.0599C80.9252 60.5554 80.7333 61.1737 80.77 61.7999C80.7351 62.4076 80.9276 63.0064 81.31 63.4799C81.4921 63.6851 81.7177 63.8471 81.9702 63.9543C82.2227 64.0616 82.4959 64.1113 82.77 64.0999C83.0383 64.1158 83.3068 64.0699 83.5546 63.9659C83.8025 63.8619 84.0233 63.7025 84.2 63.4999C84.5635 63.0031 84.7406 62.3942 84.7 61.7799C84.7395 61.1627 84.5627 60.5509 84.2 60.0499C84.0257 59.8431 83.8059 59.6795 83.5578 59.5719C83.3097 59.4644 83.04 59.4158 82.77 59.4299ZM90.37 59.7299C90.154 59.5884 89.8976 59.5217 89.64 59.5399C89.4385 59.5473 89.242 59.604 89.0676 59.7051C88.8932 59.8063 88.7464 59.9487 88.64 60.1199C88.3424 60.5912 88.199 61.1434 88.23 61.6999V64.7599H87.23V58.7599H88.23V59.9999C88.3399 59.6132 88.5586 59.2661 88.86 58.9999C89.1208 58.7736 89.4547 58.6493 89.8 58.6499C89.9933 58.6412 90.1865 58.6684 90.37 58.7299V59.7299ZM96.22 61.9999H92C91.9716 62.559 92.1535 63.1084 92.51 63.5399C92.6953 63.7248 92.9176 63.8685 93.1623 63.9615C93.407 64.0546 93.6686 64.0949 93.93 64.0799C94.6079 64.0732 95.2635 63.837 95.79 63.4099V64.3099C95.1717 64.7175 94.4395 64.9171 93.7 64.8799C93.3268 64.8988 92.9541 64.835 92.6084 64.6933C92.2627 64.5516 91.9525 64.3353 91.7 64.0599C91.1794 63.4106 90.9192 62.5907 90.97 61.7599C90.934 60.9272 91.2165 60.1119 91.76 59.4799C92.0073 59.1942 92.3151 58.9671 92.6609 58.8149C93.0068 58.6627 93.3822 58.5893 93.76 58.5999C94.1011 58.5808 94.442 58.6393 94.7573 58.7709C95.0725 58.9026 95.3538 59.1039 95.58 59.3599C96.0404 59.9671 96.2675 60.7194 96.22 61.4799L96.23 61.9999H96.22ZM95.22 61.1999C95.2403 60.7366 95.0989 60.2805 94.82 59.9099C94.6831 59.7553 94.5131 59.6336 94.3226 59.554C94.1322 59.4743 93.9261 59.4388 93.72 59.4499C93.5048 59.4473 93.2914 59.4895 93.0934 59.5739C92.8954 59.6582 92.7171 59.7829 92.57 59.9399C92.2409 60.2881 92.0338 60.7338 91.98 61.2099H95.22V61.1999Z" fill="#F2F2F2"/>
</svg>
